<?xml version="1.0" encoding="UTF-8" standalone="no"?>
<!DOCTYPE svg PUBLIC "-//W3C//DTD SVG 1.1//EN" "http://www.w3.org/Graphics/SVG/1.1/DTD/svg11.dtd">
<svg xmlns="http://www.w3.org/2000/svg" xmlns:xlink="http://www.w3.org/1999/xlink" version="1.1" width="85.0394pt" height="17.0078pt" viewBox="0 0 85.0394 17.0078">
<g enable-background="new">
<clipPath id="cp0">
<path transform="matrix(1,0,0,-1,0,17.0078)" d="M 0 0 L 85.039 0 L 85.039 10.783 L 0 10.783 Z "/>
</clipPath>
<g clip-path="url(#cp0)">
<path transform="matrix(1,0,0,-1,64.3467,11.5791)" d="M 0 0 C .007 -.28 -.019 -.562 .061 -.839 C .179 -1.261 .442 -1.521 .851 -1.515 C 1.263 -1.508 1.499 -1.392 1.7 -.907 C 1.79 -.69 1.77 -.461 1.789 -.244 C 1.828 .19 1.814 .636 1.615 1.046 C 1.461 1.363 1.174 1.483 .856 1.487 C .484 1.492 .234 1.264 .105 .917 C -.006 .617 -.009 .311 0 0 M 1.806 2.392 C 1.719 2.774 1.909 2.817 2.193 2.8 C 2.504 2.78 2.817 2.789 3.129 2.798 C 3.276 2.802 3.349 2.777 3.348 2.601 C 3.343 .653 3.39 -1.296 3.325 -3.241 C 3.294 -4.203 2.621 -5.019 1.495 -5.254 C .763 -5.407 .022 -5.379 -.687 -5.093 C -.739 -5.072 -.792 -5.049 -.839 -5.02 C -1.509 -4.605 -1.508 -4.604 -.959 -4.055 L -.919 -4.015 C -.785 -3.882 -.672 -3.704 -.511 -3.628 C -.304 -3.531 -.227 -3.811 -.061 -3.879 C .392 -4.067 1.18 -4.17 1.565 -3.627 C 1.82 -3.268 1.818 -2.856 1.812 -2.393 C 1.517 -2.655 1.21 -2.818 .854 -2.864 C -.412 -3.026 -1.427 -2.401 -1.54 -1.008 C -1.58 -.508 -1.608 -.01 -1.579 .486 C -1.549 1.024 -1.52 1.571 -1.195 2.046 C -.721 2.743 .123 2.928 .844 2.827 C 1.192 2.778 1.512 2.661 1.806 2.392 " fill="#00aeef"/>
<path transform="matrix(1,0,0,-1,54.9922,11.675799)" d="M 0 0 C 0 -.254 -.015 -.435 .004 -.612 C .023 -.795 .061 -.979 .114 -1.156 C .223 -1.509 .505 -1.707 .869 -1.71 C 1.352 -1.713 1.576 -1.572 1.718 -1.18 C 1.894 -.692 1.904 -.184 1.855 .317 C 1.829 .597 1.824 .892 1.67 1.157 C 1.498 1.454 1.219 1.586 .928 1.576 C .61 1.564 .285 1.463 .148 1.087 C .01 .708 -.016 .32 0 0 M 1.879 -2.67 C .963 -3.223 .079 -3.27 -.8 -2.707 C -1.214 -2.442 -1.383 -2 -1.468 -1.546 C -1.65 -.561 -1.639 .432 -1.473 1.419 C -1.339 2.217 -.723 2.776 .056 2.899 C .714 3.004 1.312 2.928 1.871 2.471 C 1.871 3.246 1.883 3.971 1.864 4.695 C 1.857 4.954 1.939 5.018 2.184 5.002 C 2.513 4.981 2.844 4.989 3.175 5 C 3.339 5.006 3.405 4.967 3.405 4.784 C 3.399 2.251 3.4 -.282 3.405 -2.814 C 3.405 -2.98 3.353 -3.023 3.195 -3.019 C 2.865 -3.008 2.534 -3 2.204 -3.021 C 1.946 -3.036 1.796 -2.983 1.879 -2.67 " fill="#00aeef"/>
<path transform="matrix(1,0,0,-1,1.874,10.992199)" d="M 0 0 C .472 .584 .956 1.158 1.411 1.755 C 1.646 2.063 1.879 2.272 2.31 2.218 C 2.691 2.17 3.083 2.209 3.471 2.207 C 3.514 2.207 3.575 2.202 3.596 2.175 C 3.644 2.115 3.577 2.075 3.542 2.036 C 2.937 1.354 2.334 .668 1.721 -.007 C 1.599 -.142 1.58 -.222 1.687 -.386 C 2.359 -1.416 3.015 -2.456 3.676 -3.493 C 3.71 -3.546 3.783 -3.593 3.744 -3.663 C 3.706 -3.732 3.625 -3.697 3.563 -3.697 C 3.082 -3.7 2.6 -3.69 2.118 -3.703 C 1.947 -3.707 1.841 -3.66 1.755 -3.509 C 1.419 -2.923 1.073 -2.342 .73 -1.759 C .702 -1.71 .674 -1.661 .651 -1.609 C .54 -1.365 .425 -1.405 .273 -1.584 C .063 -1.832 -.108 -2.071 -.068 -2.433 C -.03 -2.788 -.066 -3.151 -.057 -3.51 C -.053 -3.661 -.102 -3.705 -.25 -3.702 C -.618 -3.692 -.986 -3.689 -1.354 -3.703 C -1.539 -3.71 -1.598 -3.657 -1.595 -3.468 C -1.584 -2.73 -1.59 -1.992 -1.59 -1.255 C -1.59 .504 -1.586 2.263 -1.596 4.021 C -1.597 4.259 -1.532 4.333 -1.296 4.318 C -.967 4.298 -.635 4.301 -.305 4.318 C -.098 4.329 -.055 4.254 -.056 4.061 C -.063 2.775 -.06 1.489 -.06 .203 L -.06 .017 C -.04 .011 -.02 .006 0 0 " fill="#00aeef"/>
<path transform="matrix(1,0,0,-1,39.5259,9.227499)" d="M 0 0 C .458 .313 .898 .513 1.421 .504 C 2.593 .483 3.318 -.354 3.334 -1.425 C 3.354 -2.683 3.334 -3.94 3.344 -5.197 C 3.345 -5.4 3.309 -5.482 3.085 -5.469 C 2.737 -5.448 2.386 -5.453 2.037 -5.468 C 1.851 -5.476 1.797 -5.417 1.799 -5.23 C 1.807 -4.115 1.816 -2.999 1.798 -1.884 C 1.788 -1.262 1.512 -.988 1.063 -.906 C .662 -.832 .238 -1.028 .103 -1.419 C .033 -1.622 -.012 -1.832 -.011 -2.051 C -.01 -3.109 -.015 -4.169 -.007 -5.228 C -.006 -5.406 -.045 -5.477 -.238 -5.468 C -.597 -5.452 -.957 -5.456 -1.315 -5.467 C -1.479 -5.472 -1.546 -5.437 -1.546 -5.252 C -1.54 -2.728 -1.54 -.202 -1.546 2.322 C -1.546 2.519 -1.474 2.559 -1.296 2.552 C -.947 2.54 -.597 2.539 -.248 2.553 C -.062 2.56 -.004 2.506 -.007 2.317 C -.017 1.608 -.011 .899 -.011 .189 C -.01 .145 -.006 .1 0 0 " fill="#00aeef"/>
<path transform="matrix(1,0,0,-1,78.7969,12.250999)" d="M 0 0 C -.16 0 -.32 .005 -.479 -.001 C -.905 -.017 -1.194 -.282 -1.185 -.644 C -1.174 -.996 -.889 -1.238 -.473 -1.248 C -.379 -1.25 -.284 -1.248 -.19 -1.248 C .341 -1.245 .664 -.934 .687 -.402 C .703 0 .703 0 .31 0 Z M .7 -2.072 C .028 -2.607 -.667 -2.565 -1.355 -2.434 C -2.143 -2.282 -2.578 -1.742 -2.665 -.893 C -2.737 -.171 -2.508 .39 -1.902 .784 C -1.556 1.009 -1.151 1.06 -.752 1.079 C -.337 1.099 .079 1.089 .495 1.08 C .641 1.077 .686 1.121 .69 1.271 C .707 1.86 .385 2.193 -.208 2.224 C -.646 2.246 -1.027 2.145 -1.34 1.832 C -1.449 1.723 -1.537 1.752 -1.627 1.841 C -1.868 2.08 -2.104 2.324 -2.348 2.563 C -2.472 2.683 -2.424 2.766 -2.317 2.865 C -1.874 3.282 -1.334 3.484 -.745 3.515 C -.034 3.551 .683 3.543 1.333 3.175 C 1.879 2.865 2.163 2.395 2.22 1.769 C 2.337 .449 2.239 -.873 2.278 -2.192 C 2.284 -2.391 2.23 -2.454 2.029 -2.444 C 1.681 -2.428 1.33 -2.427 .981 -2.445 C .759 -2.456 .635 -2.408 .7 -2.072 " fill="#00aeef"/>
<path transform="matrix(1,0,0,-1,8.7373,12.250999)" d="M 0 0 C -.169 0 -.339 .006 -.508 -.001 C -.792 -.013 -1.025 -.2 -1.108 -.465 C -1.187 -.718 -1.129 -.951 -.92 -1.089 C -.548 -1.332 -.14 -1.293 .267 -1.15 C .635 -1.021 .692 -.707 .728 -.388 C .77 -.001 .761 0 .367 0 Z M .739 -2.094 C -.027 -2.636 -.793 -2.582 -1.562 -2.366 C -2.151 -2.199 -2.463 -1.734 -2.603 -1.176 C -2.774 -.494 -2.626 .116 -2.091 .618 C -1.712 .974 -1.247 1.047 -.771 1.077 C -.339 1.105 .097 1.091 .531 1.08 C .698 1.075 .735 1.137 .733 1.292 C .726 1.89 .41 2.202 -.187 2.222 C -.601 2.235 -.971 2.168 -1.26 1.841 C -1.358 1.729 -1.473 1.731 -1.579 1.838 C -1.82 2.077 -2.057 2.321 -2.3 2.559 C -2.421 2.676 -2.389 2.761 -2.277 2.861 C -1.538 3.534 -.657 3.59 .274 3.479 C .649 3.434 1.005 3.367 1.347 3.192 C 1.957 2.88 2.236 2.352 2.251 1.713 C 2.284 .409 2.256 -.896 2.266 -2.2 C 2.268 -2.409 2.198 -2.453 2.009 -2.444 C 1.688 -2.43 1.367 -2.43 1.046 -2.443 C .832 -2.452 .663 -2.441 .739 -2.094 " fill="#00aeef"/>
<path transform="matrix(1,0,0,-1,35.0908,14.320299)" d="M 0 0 C -.308 -.126 -.532 -.333 -.839 -.386 C -2.055 -.596 -3.062 -.221 -3.367 1.107 C -3.427 1.369 -3.45 1.645 -3.453 1.914 C -3.461 3.038 -3.452 4.163 -3.46 5.287 C -3.462 5.487 -3.405 5.549 -3.206 5.541 C -2.838 5.525 -2.469 5.526 -2.102 5.541 C -1.913 5.548 -1.863 5.488 -1.865 5.303 C -1.873 4.178 -1.87 3.054 -1.868 1.929 C -1.867 1.041 -1.046 .709 -.448 1.067 C -.169 1.234 -.057 1.489 -.056 1.798 C -.053 2.951 -.049 4.104 -.06 5.257 C -.062 5.478 -.01 5.556 .222 5.542 C .569 5.521 .92 5.523 1.269 5.541 C 1.479 5.552 1.54 5.493 1.538 5.276 C 1.528 3.841 1.533 2.404 1.533 .968 C 1.533 .59 1.525 .212 1.536 -.166 C 1.541 -.327 1.493 -.38 1.331 -.374 C 1.02 -.362 .707 -.357 .396 -.375 C .136 -.39 -.076 -.381 0 0 " fill="#00aeef"/>
<path transform="matrix(1,0,0,-1,46.624,11.167999)" d="M 0 0 C .292 0 .584 .009 .875 -.003 C 1.033 -.009 1.063 .06 1.057 .197 C 1.039 .548 .743 .987 .409 1.078 C -.409 1.302 -.857 .951 -1.03 .126 C -1.06 -.014 -.956 .002 -.874 .001 C -.583 -.001 -.291 0 0 0 M .787 -1.083 C .249 -1.083 -.289 -1.085 -.827 -1.081 C -.992 -1.08 -1.034 -1.098 -1.006 -1.304 C -.912 -1.976 -.353 -2.396 .459 -2.29 C .828 -2.242 1.116 -2.086 1.387 -1.863 C 1.472 -1.794 1.532 -1.762 1.625 -1.851 C 1.849 -2.065 2.078 -2.275 2.311 -2.48 C 2.454 -2.608 2.431 -2.713 2.298 -2.83 C 1.792 -3.278 1.231 -3.599 .53 -3.578 C .083 -3.564 -.364 -3.617 -.812 -3.484 C -1.622 -3.244 -2.151 -2.717 -2.388 -1.935 C -2.652 -1.06 -2.676 -.161 -2.376 .718 C -2.056 1.655 -1.439 2.247 -.421 2.395 C .495 2.527 1.29 2.336 1.932 1.647 C 2.329 1.221 2.514 .692 2.583 .123 C 2.62 -.184 2.651 -.491 2.649 -.803 C 2.647 -1.016 2.608 -1.098 2.373 -1.089 C 1.846 -1.069 1.315 -1.083 .787 -1.083 " fill="#00aeef"/>
<path transform="matrix(1,0,0,-1,22.8926,14.746099)" d="M 0 0 C -.539 -.024 -1.066 .016 -1.573 .226 C -1.857 .344 -2.085 .536 -2.325 .717 C -2.434 .8 -2.426 .874 -2.329 .968 C -2.123 1.163 -1.911 1.354 -1.73 1.571 C -1.539 1.803 -1.388 1.827 -1.131 1.638 C -.587 1.236 .041 1.221 .674 1.376 C .941 1.441 1.122 1.599 1.092 1.919 C 1.064 2.207 .876 2.296 .638 2.327 C .185 2.389 -.269 2.442 -.723 2.495 C -1.73 2.613 -2.219 3.433 -2.11 4.405 C -2.018 5.237 -1.113 5.88 -.351 5.97 C .458 6.064 1.236 6.024 1.973 5.66 C 2.539 5.381 2.539 5.34 2.103 4.903 C 1.969 4.77 1.827 4.643 1.705 4.499 C 1.59 4.364 1.48 4.357 1.337 4.448 C .866 4.746 .355 4.82 -.187 4.71 C -.443 4.658 -.631 4.403 -.606 4.15 C -.583 3.909 -.385 3.773 -.048 3.747 C .435 3.71 .92 3.682 1.394 3.575 C 2.095 3.418 2.628 2.808 2.624 2.032 C 2.622 1.6 2.583 1.194 2.308 .834 C 1.969 .39 1.504 .182 .982 .054 C .657 -.026 .328 .007 0 0 " fill="#00aeef"/>
<path transform="matrix(1,0,0,-1,72.5664,11.806599)" d="M 0 0 C 0 .464 -.009 .927 .005 1.39 C .011 1.59 -.024 1.676 -.253 1.667 C -.663 1.65 -.62 1.596 -.623 2.042 C -.625 2.231 -.61 2.422 -.627 2.609 C -.645 2.812 -.568 2.868 -.371 2.862 C 0 2.852 0 2.863 0 3.234 C 0 3.603 .006 3.972 -.002 4.34 C -.006 4.491 .027 4.563 .199 4.559 C .576 4.547 .955 4.547 1.332 4.559 C 1.503 4.564 1.537 4.497 1.534 4.344 C 1.525 3.928 1.539 3.512 1.527 3.097 C 1.522 2.917 1.565 2.839 1.761 2.854 C 1.977 2.871 2.195 2.851 2.412 2.86 C 2.556 2.866 2.616 2.825 2.611 2.671 C 2.602 2.388 2.604 2.104 2.61 1.82 C 2.613 1.694 2.564 1.655 2.444 1.658 C 2.209 1.665 1.972 1.651 1.736 1.664 C 1.571 1.672 1.527 1.609 1.528 1.451 C 1.534 .619 1.527 -.213 1.533 -1.044 C 1.535 -1.438 1.687 -1.578 2.08 -1.579 C 2.608 -1.579 2.61 -1.579 2.607 -2.116 C 2.606 -2.36 2.688 -2.685 2.564 -2.827 C 2.42 -2.995 2.087 -2.868 1.836 -2.884 C 1.374 -2.912 .939 -2.852 .568 -2.532 C .215 -2.229 .017 -1.852 .003 -1.389 C -.011 -.927 0 -.463 0 0 " fill="#00aeef"/>
<path transform="matrix(1,0,0,-1,82.3174,9.970699)" d="M 0 0 C 0 .993 .012 1.985 -.007 2.977 C -.012 3.25 .077 3.314 .328 3.297 C .619 3.276 .913 3.294 1.206 3.292 C 1.637 3.288 1.587 3.353 1.587 2.923 C 1.589 .995 1.588 -.933 1.588 -2.859 C 1.588 -3.346 1.656 -3.415 2.137 -3.415 C 2.608 -3.415 2.616 -3.415 2.605 -3.896 C 2.6 -4.165 2.73 -4.525 2.548 -4.679 C 2.392 -4.811 2.043 -4.706 1.78 -4.722 C .868 -4.779 .273 -4.261 .1 -3.608 C .044 -3.4 -.002 -3.193 -.001 -2.976 C .003 -1.984 0 -.992 0 0 " fill="#00aeef"/>
<path transform="matrix(1,0,0,-1,17.3477,10.0264)" d="M 0 0 C 0 1.001 .014 2.003 -.008 3.004 C -.015 3.308 .081 3.376 .357 3.353 C .638 3.329 .924 3.332 1.206 3.352 C 1.456 3.371 1.54 3.307 1.538 3.034 C 1.525 1.173 1.534 -.688 1.526 -2.55 C 1.526 -2.741 1.566 -2.923 1.597 -3.105 C 1.621 -3.246 1.723 -3.356 1.891 -3.359 C 1.919 -3.359 1.947 -3.358 1.976 -3.359 C 2.608 -3.37 2.608 -3.37 2.608 -4.02 C 2.608 -4.665 2.608 -4.67 1.969 -4.663 C 1.661 -4.659 1.355 -4.691 1.049 -4.578 C .454 -4.357 .003 -3.76 .001 -3.118 C -.002 -2.079 0 -1.04 0 0 " fill="#00aeef"/>
<path transform="matrix(1,0,0,-1,13.8511,9.232399)" d="M 0 0 C .496 .381 1.013 .539 1.585 .505 C 2.028 .479 2.423 .338 2.751 .028 C 2.825 -.042 2.815 -.093 2.751 -.16 C 2.434 -.495 2.083 -.798 1.786 -1.154 C 1.702 -1.255 1.603 -1.189 1.518 -1.116 C .962 -.639 .283 -.918 .064 -1.546 C .032 -1.64 .04 -1.732 .04 -1.825 C .038 -2.949 .033 -4.074 .044 -5.198 C .046 -5.409 -.006 -5.475 -.221 -5.464 C -.588 -5.445 -.957 -5.451 -1.324 -5.462 C -1.491 -5.467 -1.554 -5.428 -1.553 -5.245 C -1.546 -3.421 -1.547 -1.599 -1.552 .225 C -1.552 .395 -1.508 .459 -1.33 .452 C -.991 .439 -.649 .434 -.311 .454 C -.08 .467 .023 .401 -.017 .162 C -.022 .128 -.01 .092 0 0 " fill="#00aeef"/>
<path transform="matrix(1,0,0,-1,28.1914,9.214799)" d="M 0 0 C .48 .34 .982 .529 1.543 .484 C 1.968 .451 2.372 .346 2.691 .029 C 2.784 -.062 2.817 -.126 2.702 -.235 C 2.4 -.521 2.109 -.817 1.82 -1.115 C 1.714 -1.225 1.638 -1.232 1.512 -1.131 C 1.208 -.884 .878 -.802 .507 -1.009 C .162 -1.202 .038 -1.495 .04 -1.874 C .045 -2.98 .034 -4.086 .048 -5.192 C .051 -5.435 -.021 -5.494 -.251 -5.481 C -.619 -5.462 -.988 -5.471 -1.355 -5.479 C -1.505 -5.482 -1.549 -5.433 -1.549 -5.284 C -1.544 -3.45 -1.543 -1.616 -1.55 .217 C -1.55 .401 -1.481 .439 -1.317 .434 C -.987 .424 -.655 .416 -.326 .436 C -.087 .451 .039 .398 -.014 .134 C -.02 .102 -.008 .066 0 0 " fill="#00aeef"/>
<path transform="matrix(1,0,0,-1,59.9238,11.7295)" d="M 0 0 C 0 .897 .005 1.795 -.004 2.692 C -.006 2.885 .041 2.96 .247 2.95 C .595 2.933 .945 2.931 1.294 2.951 C 1.525 2.964 1.597 2.901 1.594 2.659 C 1.581 1.346 1.588 .033 1.588 -1.281 C 1.588 -1.772 1.582 -2.264 1.591 -2.755 C 1.594 -2.912 1.554 -2.97 1.388 -2.965 C 1.001 -2.954 .614 -2.95 .228 -2.966 C .03 -2.974 -.005 -2.898 -.003 -2.722 C .004 -1.814 0 -.907 0 0 " fill="#00aeef"/>
<path transform="matrix(1,0,0,-1,70.8096,11.732399)" d="M 0 0 C 0 -.907 -.005 -1.814 .004 -2.722 C .005 -2.898 -.031 -2.972 -.227 -2.963 C -.604 -2.947 -.981 -2.952 -1.358 -2.962 C -1.52 -2.966 -1.593 -2.938 -1.592 -2.749 C -1.585 -.926 -1.586 .898 -1.591 2.722 C -1.591 2.888 -1.554 2.958 -1.372 2.953 C -.985 2.939 -.598 2.938 -.211 2.953 C -.023 2.96 .004 2.883 .003 2.721 C -.004 1.813 0 .907 0 0 " fill="#00aeef"/>
<path transform="matrix(1,0,0,-1,51.3057,14.691399)" d="M 0 0 C -.227 0 -.454 .009 -.68 -.003 C -.845 -.012 -.916 .028 -.91 .213 C -.896 .638 -.9 1.064 -.909 1.489 C -.911 1.646 -.867 1.709 -.701 1.706 C -.229 1.698 .242 1.699 .715 1.706 C .862 1.708 .913 1.659 .911 1.511 C .903 1.066 .904 .622 .911 .178 C .913 .045 .874 -.007 .736 -.002 C .491 .007 .245 0 0 0 " fill="#00aeef"/>
<path transform="matrix(1,0,0,-1,60.7305,6.622099)" d="M 0 0 C .18 0 .36 -.01 .538 .003 C .716 .017 .798 -.027 .785 -.226 C .77 -.499 .772 -.774 .785 -1.048 C .793 -1.215 .73 -1.256 .573 -1.252 C .177 -1.242 -.22 -1.246 -.617 -1.25 C -.74 -1.252 -.812 -1.232 -.809 -1.083 C -.801 -.781 -.802 -.478 -.809 -.176 C -.812 -.038 -.755 .006 -.623 .002 C -.416 -.005 -.207 0 0 0 " fill="#00aeef"/>
<path transform="matrix(1,0,0,-1,69.9834,7.8710997)" d="M 0 0 C -.216 .028 -.551 -.115 -.717 .057 C -.867 .213 -.749 .543 -.762 .797 C -.764 .854 -.755 .911 -.763 .967 C -.795 1.186 -.721 1.269 -.486 1.255 C -.119 1.233 .251 1.242 .619 1.252 C .779 1.257 .836 1.208 .829 1.044 C .818 .761 .819 .477 .829 .194 C .833 .05 .794 -.012 .64 -.002 C .441 .009 .242 0 0 0 " fill="#00aeef"/>
</g>
</g>
</svg>
