<svg width="455" height="64" viewBox="0 0 455 64" fill="none" xmlns="http://www.w3.org/2000/svg">
<path fill-rule="evenodd" clip-rule="evenodd" d="M43.6187 0H45.8727H46.7022H51.7825L34.2362 30.7487H25.8659L43.6187 0ZM50.3782 7.88045L54.7896 0.149763L73.1784 32L54.7032 64L17.7528 64L0.098838 33.4225H8.16969L21.7078 56.8712L50.117 56.8712L64.3215 32.2682L50.3782 7.88045ZM25.9167 0H17.7528L0 30.7487H8.37032L16.3806 16.7112H30.7968L34.0053 11.3636H19.4322L25.9167 0ZM35.0904 33.4225H10.9593L23.1251 54.4787H47.1225L35.0904 33.4225ZM36.8952 31.7515L48.9273 10.6953L61.6278 32.4199L49.462 53.4761L36.8952 31.7515Z" fill="url(#paint0_linear)"/>
<path d="M129.969 52.4496H119.232V35.4497H104.32V52.4496H93.583V10.6953H104.32V27.0988H119.232V10.6953H129.969V52.4496Z" fill="black"/>
<path d="M147.593 52.4496H135.962L151.769 10.6953H163.699L179.506 52.4496H167.874L165.19 44.9935H150.278L147.593 52.4496ZM152.962 37.2391H162.506L157.734 23.2216L152.962 37.2391Z" fill="black"/>
<path d="M216.514 51.8532C207.646 52.6485 200.289 53.0461 194.443 53.0461C190.546 53.0461 187.683 52.1315 185.854 50.3023C184.025 48.473 183.11 45.6099 183.11 41.7128V22.6251C183.11 18.4497 184.045 15.4275 185.914 13.5585C187.822 11.6497 190.865 10.6953 195.04 10.6953H216.514V19.0462H197.426C195.04 19.0462 193.847 20.2392 193.847 22.6251V41.7128C193.847 42.6274 194.105 43.3631 194.622 43.9198C195.179 44.4368 195.875 44.6953 196.71 44.6953C197.545 44.6953 198.46 44.6953 199.454 44.6953C200.448 44.6555 201.482 44.6157 202.556 44.576C203.629 44.5362 204.703 44.4964 205.777 44.4567C206.89 44.4169 208.302 44.3374 210.012 44.2181C211.762 44.0988 213.929 43.9596 216.514 43.8005V51.8532Z" fill="black"/>
<path d="M235.012 52.4496H224.275V10.6953H235.012V27.0988H240.38L249.686 10.6953H261.019L249.328 31.2742L260.959 52.4496H249.626L240.38 35.4497H235.012V52.4496Z" fill="black"/>
<path d="M287.848 52.4496H277.111V19.0462H264.585V10.6953H300.374V19.0462H287.848V52.4496Z" fill="black"/>
<path d="M327.223 52.4496H305.75V44.0988H311.118V19.0462H305.75V10.6953H327.223V19.0462H321.855V44.0988H327.223V52.4496Z" fill="black"/>
<path d="M353.166 39.9233L363.306 10.6953H374.938L359.131 52.4496H347.201L331.394 10.6953H343.026L353.166 39.9233Z" fill="black"/>
<path d="M384.162 52.4496H372.531L388.338 10.6953H400.268L416.075 52.4496H404.443L401.759 44.9935H386.847L384.162 52.4496ZM389.531 37.2391H399.075L394.303 23.2216L389.531 37.2391Z" fill="black"/>
<path d="M432.774 44.0988H454.546V52.4496H422.037V10.6953H432.774V44.0988Z" fill="black"/>
<defs>
<linearGradient id="paint0_linear" x1="59.8263" y1="64.1712" x2="12.3663" y2="8.35563" gradientUnits="userSpaceOnUse">
<stop stop-color="#3041DB"/>
<stop offset="1" stop-color="#B4ADFF"/>
</linearGradient>
</defs>
</svg>
