<?xml version="1.0" standalone="no"?>
<!DOCTYPE svg PUBLIC "-//W3C//DTD SVG 20010904//EN"
 "http://www.w3.org/TR/2001/REC-SVG-20010904/DTD/svg10.dtd">
<svg version="1.0" xmlns="http://www.w3.org/2000/svg"
 width="1024.000000pt" height="1024.000000pt" viewBox="0 0 1024.000000 1024.000000"
 preserveAspectRatio="xMidYMid meet">
<metadata>
Created by potrace 1.11, written by Peter Selinger 2001-2013
</metadata>
<g transform="translate(0.000000,1024.000000) scale(0.100000,-0.100000)"
fill="#000000" stroke="none">
<path d="M2470 9555 c-4 -5 -44 -73 -88 -150 -44 -77 -119 -207 -167 -290 -48
-82 -96 -164 -106 -182 -169 -296 -294 -513 -307 -533 -9 -14 -15 -28 -14 -32
1 -5 -3 -8 -8 -8 -6 0 -10 -6 -10 -14 0 -8 -7 -21 -15 -30 -8 -8 -19 -25 -25
-38 -5 -13 -14 -30 -20 -38 -10 -15 -53 -90 -129 -222 -17 -32 -189 -329 -227
-395 -97 -166 -124 -215 -124 -223 0 -5 -8 -14 -17 -19 -10 -6 -14 -11 -9 -11
5 0 4 -6 -2 -12 -5 -7 -19 -29 -30 -48 -11 -19 -46 -80 -77 -135 -32 -55 -63
-110 -69 -122 -6 -13 -14 -23 -18 -23 -5 0 -8 -5 -8 -10 0 -11 -192 -347 -210
-367 -6 -7 -11 -16 -12 -20 0 -5 -6 -17 -13 -28 -20 -31 -136 -236 -153 -270
-9 -16 -18 -32 -22 -35 -4 -3 -13 -20 -21 -37 -8 -18 -17 -33 -21 -33 -5 0 -8
-4 -8 -9 0 -4 -30 -60 -66 -122 -37 -63 -80 -139 -97 -169 -17 -30 -34 -56
-39 -58 -4 -2 -8 -8 -8 -13 0 -8 -227 -408 -260 -459 -5 -8 -21 -35 -34 -60
l-24 -46 579 1 580 0 41 70 c22 39 50 86 60 105 24 42 219 383 233 408 27 46
112 196 124 220 8 15 18 29 23 30 4 2 6 7 3 12 -3 4 2 13 10 20 8 7 15 16 15
20 0 6 186 336 219 390 31 49 111 195 111 202 0 4 4 8 9 8 5 0 13 9 16 20 6
18 159 291 185 330 6 8 13 22 17 30 4 8 16 31 28 50 l22 35 994 -1 c652 0 999
3 1007 10 8 5 23 28 34 50 11 22 27 46 34 54 8 7 14 18 14 23 0 12 52 93 63
97 4 2 7 10 7 18 0 8 5 20 10 27 20 24 60 88 60 97 0 5 6 15 13 22 6 7 23 33
36 58 14 25 27 47 31 50 4 3 17 26 30 53 13 26 27 47 31 47 4 0 11 9 14 20 4
11 19 39 33 61 15 23 27 44 27 48 0 3 -452 7 -1005 8 -553 0 -1007 2 -1009 2
-2 1 3 11 11 24 8 12 32 54 53 92 21 39 41 75 45 80 5 6 17 27 29 48 12 20 31
54 42 75 12 20 38 66 58 101 20 34 45 79 57 100 11 20 36 63 54 96 18 33 40
68 48 78 8 9 11 17 7 17 -4 0 -2 8 6 18 14 17 22 30 66 111 14 25 29 51 33 56
7 9 23 36 74 128 11 21 26 46 31 55 6 9 30 53 54 97 25 44 47 82 50 85 3 3 13
18 21 35 22 44 140 248 152 263 7 8 6 12 -3 13 -8 1 -263 2 -567 3 -360 1
-556 -2 -562 -9z"/>
<path d="M6063 9555 c-5 -6 -26 -42 -47 -80 -22 -39 -43 -71 -47 -73 -5 -2 -9
-12 -9 -23 0 -10 -4 -19 -9 -19 -5 0 -11 -8 -15 -17 -3 -10 -14 -31 -23 -48
-47 -78 -90 -151 -96 -165 -4 -8 -16 -28 -27 -45 -10 -16 -25 -41 -33 -55 -7
-14 -74 -131 -149 -260 -74 -129 -192 -334 -262 -455 -69 -121 -130 -227 -136
-235 -5 -8 -30 -52 -55 -97 -26 -46 -51 -85 -56 -89 -5 -3 -7 -10 -4 -15 4 -5
1 -9 -4 -9 -6 0 -11 -4 -11 -9 0 -5 -17 -38 -38 -72 -44 -73 -101 -173 -116
-206 -6 -13 -14 -23 -18 -23 -5 0 -8 -4 -8 -10 0 -5 -27 -55 -60 -111 -33 -55
-60 -105 -60 -110 0 -5 -4 -9 -10 -9 -5 0 -10 -4 -10 -9 0 -13 -92 -175 -102
-179 -4 -2 -8 -8 -8 -13 0 -5 -44 -85 -97 -177 -54 -92 -96 -169 -94 -171 1
-2 -1 -7 -6 -10 -9 -6 -83 -129 -83 -138 0 -3 -8 -17 -19 -31 -10 -15 -29 -47
-43 -72 -14 -25 -34 -61 -45 -80 -43 -73 -136 -236 -155 -270 -11 -19 -35 -60
-54 -91 -19 -31 -34 -61 -34 -67 0 -6 -4 -12 -8 -14 -4 -1 -26 -34 -47 -73
-22 -38 -45 -79 -52 -90 -7 -11 -15 -26 -19 -34 -4 -8 -36 -64 -72 -125 -36
-61 -74 -127 -84 -146 -11 -19 -35 -60 -53 -90 -18 -30 -44 -75 -57 -100 l-25
-45 576 1 c317 1 579 2 583 3 4 0 17 20 29 44 12 23 24 44 28 47 3 3 19 30 35
60 16 30 49 88 73 127 23 40 43 75 43 77 0 2 20 39 45 80 25 42 45 81 45 86 0
6 4 10 9 10 5 0 12 9 16 19 3 11 27 57 54 103 26 46 59 103 73 128 14 25 42
74 63 110 21 36 51 90 68 120 17 30 48 83 69 118 21 34 38 64 38 67 0 2 19 37
43 77 24 40 46 80 50 88 4 8 16 30 27 48 22 36 129 223 164 287 25 44 30 53
145 253 45 77 81 145 81 150 0 6 4 12 8 14 5 2 22 28 39 58 36 65 45 82 179
317 57 100 104 186 104 192 0 5 4 11 9 13 5 2 22 28 38 58 16 30 64 115 106
188 42 73 77 137 77 142 0 6 5 10 10 10 6 0 10 5 10 10 0 6 18 40 40 76 22 36
40 70 40 75 0 5 5 9 11 9 5 0 8 4 5 8 -3 5 3 20 12 33 26 37 101 169 107 190
4 11 11 19 16 19 5 0 9 4 9 9 0 6 29 60 64 121 36 61 68 119 71 130 4 11 11
20 16 20 5 0 9 6 9 14 0 7 9 25 21 40 11 14 18 26 14 26 -3 0 3 13 14 29 12
16 21 34 21 40 0 6 4 11 8 11 5 0 23 28 41 63 36 68 62 115 109 195 17 28 28
53 24 53 -4 1 -257 2 -563 3 -365 1 -560 -2 -566 -9z"/>
<path d="M7609 9529 c-8 -5 -10 -9 -5 -9 5 0 3 -7 -4 -15 -13 -16 -100 -166
-100 -172 0 -3 -7 -11 -15 -20 -8 -8 -13 -19 -10 -24 4 -5 1 -9 -4 -9 -6 0
-11 -7 -11 -15 0 -8 -4 -15 -8 -15 -4 0 -13 -12 -19 -27 -7 -16 -28 -55 -48
-88 -20 -33 -39 -68 -42 -77 -3 -10 -9 -18 -14 -18 -5 0 -9 -5 -9 -10 0 -6
-31 -65 -70 -131 -38 -66 -70 -121 -70 -123 0 -1 -38 -69 -85 -151 -47 -81
-85 -151 -85 -155 0 -5 47 -89 103 -188 57 -98 107 -185 110 -193 4 -8 21 -36
37 -64 17 -27 36 -61 43 -75 6 -14 14 -27 17 -30 3 -3 12 -19 21 -35 9 -17 42
-75 74 -130 32 -55 68 -119 80 -142 12 -23 27 -48 32 -55 6 -7 23 -35 37 -63
15 -27 31 -57 37 -65 11 -19 250 -436 291 -509 16 -29 43 -76 59 -103 16 -27
29 -51 29 -53 0 -2 27 -49 61 -106 33 -56 65 -113 70 -125 4 -13 13 -24 19
-24 5 0 10 -7 10 -16 0 -9 8 -28 19 -42 10 -15 29 -47 43 -72 14 -25 89 -157
168 -295 78 -137 154 -270 168 -295 14 -25 44 -76 66 -115 23 -38 48 -83 56
-100 8 -16 17 -32 20 -35 5 -5 12 -17 58 -99 14 -25 33 -59 43 -76 24 -41 80
-139 114 -200 15 -27 32 -56 38 -62 10 -13 2 -32 -47 -118 -74 -131 -202 -351
-206 -355 -3 -3 -14 -23 -25 -45 -11 -22 -22 -42 -25 -45 -3 -3 -28 -43 -54
-90 -73 -129 -85 -149 -130 -225 -22 -38 -47 -81 -53 -95 -7 -14 -22 -41 -34
-60 -45 -75 -269 -462 -269 -465 0 -3 -25 -45 -55 -95 -30 -50 -55 -95 -55
-100 0 -4 -5 -10 -11 -12 -5 -2 -11 -11 -13 -21 -1 -10 -10 -27 -19 -38 -9
-10 -17 -21 -17 -24 0 -2 -22 -42 -50 -89 -27 -47 -50 -89 -50 -95 0 -6 -4
-11 -10 -11 -5 0 -10 -7 -10 -15 0 -8 -4 -15 -10 -15 -5 0 -10 -5 -10 -11 0
-6 -22 -49 -50 -96 -27 -47 -50 -89 -50 -94 0 -5 -4 -9 -10 -9 -5 0 -10 -4
-10 -9 0 -6 -25 -52 -55 -104 -30 -51 -55 -99 -55 -105 0 -5 -4 -12 -8 -14 -7
-3 -103 -165 -167 -283 -15 -27 -31 -54 -35 -60 -10 -12 -179 -305 -223 -385
-16 -30 -35 -62 -41 -70 -6 -8 -16 -24 -22 -35 -49 -90 -68 -122 -79 -135 -12
-13 -244 -15 -1979 -15 -1259 0 -1969 4 -1975 10 -5 6 -19 27 -30 48 -25 44
-41 72 -110 190 -28 49 -51 93 -51 98 0 5 -4 9 -10 9 -5 0 -10 5 -10 10 0 6
-11 27 -23 48 -23 36 -45 73 -117 202 -20 36 -48 84 -63 107 -15 24 -27 44
-27 47 0 2 -36 64 -79 139 -43 74 -90 154 -104 178 -13 24 -48 85 -77 134 -29
50 -66 115 -83 145 -16 30 -36 62 -43 71 -8 8 -14 19 -14 23 0 4 -29 57 -65
117 -36 60 -65 112 -65 116 0 3 -6 14 -14 22 -8 9 -26 39 -41 66 -15 28 -37
68 -51 90 -13 22 -27 47 -31 55 -5 8 -27 47 -51 87 -23 39 -42 76 -42 82 0 6
-5 11 -11 11 -5 0 -8 4 -5 9 4 5 2 11 -2 13 -4 1 -32 46 -62 98 -29 52 -60
103 -68 113 -8 9 -11 17 -7 17 4 0 1 8 -7 18 -8 9 -45 69 -81 132 -36 63 -107
187 -158 275 -51 88 -126 219 -167 290 -41 72 -83 144 -94 160 l-20 30 -546
-2 c-301 0 -550 -2 -554 -2 -11 -1 -10 -29 0 -33 5 -1 22 -28 39 -58 17 -30
72 -127 123 -215 51 -88 101 -175 111 -193 51 -89 63 -109 80 -137 11 -16 24
-41 31 -55 7 -14 15 -27 18 -30 3 -3 11 -16 18 -30 7 -14 20 -38 31 -55 10
-16 28 -47 39 -67 12 -21 72 -124 133 -230 61 -106 123 -213 137 -238 14 -25
63 -109 108 -188 46 -79 84 -146 84 -149 0 -4 6 -14 14 -22 7 -9 24 -36 37
-61 13 -25 29 -48 34 -52 6 -4 6 -8 2 -8 -5 0 0 -12 11 -27 19 -27 31 -48 90
-153 14 -25 36 -62 49 -82 12 -21 23 -42 23 -48 0 -5 5 -10 10 -10 6 0 10 -5
10 -10 0 -6 17 -38 37 -73 21 -34 45 -76 53 -92 8 -17 17 -32 20 -35 5 -5 13
-19 58 -99 14 -25 42 -74 63 -108 21 -35 40 -72 44 -83 3 -11 11 -20 16 -20 5
0 9 -9 9 -20 0 -11 4 -20 8 -20 5 0 18 -18 30 -41 42 -77 57 -104 64 -109 4
-3 11 -17 17 -30 6 -14 24 -47 41 -75 17 -27 42 -72 56 -100 15 -27 30 -51 35
-53 5 -2 9 -8 9 -13 0 -4 41 -78 90 -162 50 -85 90 -159 90 -166 0 -6 4 -11 9
-11 5 0 11 -8 15 -17 3 -10 10 -25 16 -33 10 -16 125 -214 168 -290 14 -25 35
-61 47 -80 12 -19 24 -42 28 -50 4 -8 18 -33 32 -55 13 -22 29 -49 34 -60 6
-11 34 -60 63 -110 l54 -90 2559 -1 c1408 0 2566 2 2573 4 6 2 12 8 12 13 0 5
41 79 90 164 50 85 90 159 90 165 0 5 5 10 10 10 6 0 10 4 10 9 0 5 18 39 40
75 22 36 40 70 40 76 0 5 4 10 8 10 4 0 14 16 21 35 7 19 16 35 21 35 5 0 12
10 16 23 4 12 18 40 32 62 14 22 36 58 48 80 11 22 31 56 42 75 12 19 35 60
52 90 17 30 44 78 60 105 17 28 42 73 56 100 15 28 30 52 33 55 4 3 18 26 31
53 14 26 28 47 32 47 5 0 8 8 8 18 0 10 9 28 20 40 11 12 20 24 20 27 0 6 65
120 99 175 8 14 16 27 16 30 1 3 11 21 23 40 12 19 22 41 22 48 0 6 4 12 8 12
5 0 18 17 29 38 11 20 37 66 58 102 21 36 48 83 60 105 27 48 106 185 205 355
40 69 84 145 98 169 14 25 38 67 53 93 16 27 29 53 29 58 0 4 4 10 8 12 5 2
29 41 55 88 26 47 52 92 57 100 5 8 33 56 61 105 29 50 65 113 81 140 16 28
32 58 35 67 3 10 9 18 14 18 5 0 9 4 9 9 0 7 21 45 65 119 6 9 29 51 53 92 23
41 47 82 52 90 39 61 110 191 110 199 0 6 5 11 10 11 6 0 10 4 10 8 0 5 38 75
85 156 47 81 85 152 85 157 0 5 3 9 8 9 4 0 18 21 32 47 13 27 38 71 55 98 16
28 37 62 45 78 8 15 43 77 78 137 l63 110 -26 47 c-14 27 -34 62 -45 78 -11
17 -23 37 -27 45 -4 8 -38 69 -76 135 -39 66 -78 133 -87 150 -10 16 -93 161
-185 320 -92 160 -175 305 -183 323 -9 17 -19 32 -24 32 -4 0 -8 4 -8 10 0 5
-32 64 -71 132 -40 67 -80 136 -89 153 -9 16 -43 75 -75 130 -32 55 -83 143
-113 195 -62 107 -75 131 -123 215 -18 33 -39 66 -46 73 -7 7 -13 18 -13 23 0
5 -18 39 -41 75 -22 37 -45 78 -50 91 -4 12 -13 23 -19 23 -5 0 -10 7 -10 15
0 9 -11 34 -26 56 -14 22 -34 56 -45 75 -30 54 -50 88 -149 259 -51 88 -102
176 -113 195 -10 19 -34 60 -52 90 -18 30 -44 75 -57 100 -14 25 -63 110 -110
190 -47 80 -96 165 -110 190 -14 25 -58 101 -97 168 -39 68 -71 128 -71 133 0
5 -4 9 -9 9 -5 0 -11 8 -14 18 -4 9 -18 37 -33 62 -15 25 -40 68 -56 95 -66
116 -110 192 -130 225 -11 19 -32 55 -46 80 -14 25 -33 57 -43 71 -10 14 -16
29 -12 33 3 3 2 6 -4 6 -6 0 -13 8 -17 18 -3 9 -14 31 -24 49 -14 23 -22 29
-33 22z"/>
<path d="M6794 8062 c-10 -16 -54 -96 -93 -167 -9 -16 -18 -32 -21 -35 -3 -3
-32 -52 -65 -110 -32 -58 -61 -107 -64 -110 -3 -3 -7 -11 -9 -19 -2 -8 -11
-26 -21 -40 -10 -14 -35 -57 -56 -96 -21 -38 -41 -72 -44 -75 -4 -3 -12 -16
-18 -30 -14 -28 -57 -105 -132 -233 -28 -49 -51 -93 -51 -98 0 -5 -4 -9 -10
-9 -5 0 -10 -5 -10 -11 0 -6 -29 -60 -65 -120 -36 -61 -65 -112 -65 -114 0 -1
-36 -64 -80 -140 -44 -76 -80 -139 -80 -141 0 -3 -11 -21 -23 -42 -13 -20 -41
-68 -62 -107 -21 -38 -41 -72 -44 -75 -3 -3 -17 -27 -31 -55 -13 -27 -27 -52
-30 -55 -3 -3 -21 -32 -40 -65 -47 -85 -80 -145 -103 -185 -10 -19 -23 -39
-27 -45 -4 -5 -25 -41 -45 -80 -21 -38 -41 -72 -44 -75 -3 -3 -16 -25 -29 -49
-32 -62 -56 -105 -62 -111 -3 -3 -11 -16 -18 -30 -7 -14 -22 -41 -33 -60 -12
-19 -32 -53 -44 -75 -30 -56 -73 -130 -106 -187 -16 -27 -29 -53 -29 -58 0
-14 18 -51 45 -95 14 -22 33 -53 41 -70 8 -16 25 -46 37 -67 12 -20 40 -67 62
-105 22 -37 48 -81 58 -98 9 -16 20 -38 23 -48 4 -9 10 -17 15 -17 5 0 9 -4 9
-9 0 -9 48 -97 86 -158 8 -13 13 -25 12 -27 -2 -2 4 -12 13 -22 9 -11 40 -62
70 -114 30 -52 59 -103 64 -112 25 -43 143 -247 170 -294 17 -28 75 -129 130
-224 55 -94 109 -188 121 -208 43 -78 73 -130 116 -202 25 -41 56 -95 70 -120
33 -59 55 -97 118 -205 73 -125 84 -144 178 -310 28 -49 56 -95 62 -102 5 -7
10 -14 10 -17 0 -3 35 -65 78 -138 42 -73 86 -150 97 -170 11 -21 23 -38 28
-38 4 0 6 -3 3 -8 -2 -4 2 -15 9 -25 12 -16 14 -16 29 7 9 14 16 30 16 36 0 5
5 10 10 10 6 0 10 4 10 9 0 5 20 44 45 85 25 42 45 81 45 86 0 6 4 10 8 10 5
0 17 19 28 43 10 23 21 44 25 47 4 3 17 23 28 45 12 22 26 47 31 55 44 71 110
191 110 199 0 6 3 11 8 11 7 0 25 30 38 63 3 9 11 17 16 17 5 0 7 4 3 9 -3 5
0 16 7 23 7 8 18 23 24 33 6 11 46 80 89 154 42 74 86 151 97 170 11 20 42 73
69 119 27 45 49 86 49 90 0 5 5 13 12 20 12 12 65 101 90 152 7 14 27 48 45
77 18 29 33 54 33 57 0 5 96 168 120 206 6 8 13 22 17 30 4 8 20 38 36 65 17
28 38 65 48 83 46 80 60 104 123 211 36 62 66 118 66 122 0 5 4 9 8 9 4 0 13
12 19 28 12 27 32 63 99 173 19 31 34 61 34 67 0 6 3 12 8 14 9 4 41 57 49 81
3 9 9 17 14 17 5 0 9 6 9 13 0 7 11 29 25 48 13 20 21 39 18 43 -4 3 -1 6 5 6
7 0 12 5 12 12 0 6 7 19 16 29 16 17 8 32 -161 317 -6 9 -22 37 -35 61 -14 24
-30 51 -35 60 -6 9 -37 62 -70 119 -65 112 -109 188 -140 240 -11 19 -53 91
-94 160 -40 70 -96 165 -124 212 -27 47 -58 99 -67 115 -10 17 -41 71 -70 120
-29 50 -60 104 -70 120 -9 17 -31 53 -48 81 -18 28 -32 56 -32 63 0 6 -3 11
-7 11 -5 0 -13 10 -19 23 -6 12 -35 63 -64 112 -29 50 -60 104 -70 120 -9 17
-86 147 -170 290 -84 143 -160 274 -170 290 -9 17 -50 87 -90 155 -40 69 -84
145 -98 170 -14 25 -30 48 -36 52 -6 4 -7 8 -3 8 4 0 -6 20 -23 44 -16 25 -30
48 -30 53 0 4 -6 16 -13 25 -12 15 -14 15 -23 0z"/>
<path d="M1540 4914 c0 -12 7 -27 15 -34 8 -7 15 -16 15 -21 0 -5 12 -28 27
-52 15 -23 28 -44 28 -47 0 -3 8 -16 16 -30 46 -72 89 -149 89 -159 0 -6 5
-11 10 -11 6 0 10 -6 10 -13 0 -7 6 -19 13 -25 6 -7 12 -16 12 -20 0 -4 8 -18
16 -32 9 -14 41 -68 71 -120 30 -52 85 -146 122 -209 36 -62 66 -117 66 -122
0 -5 5 -9 11 -9 5 0 8 -4 4 -9 -3 -5 -1 -12 4 -16 5 -3 17 -19 25 -35 24 -44
45 -81 66 -115 11 -16 27 -47 36 -67 9 -21 20 -38 24 -38 4 0 10 -8 13 -17 4
-10 18 -38 33 -63 15 -25 35 -60 45 -77 11 -18 28 -48 38 -65 10 -18 50 -88
89 -155 38 -68 74 -128 79 -135 6 -7 23 -38 40 -68 16 -30 42 -74 56 -97 15
-24 24 -43 20 -43 -5 0 -3 -4 2 -8 12 -9 44 -61 52 -84 3 -10 9 -18 14 -18 5
0 9 -4 9 -9 0 -8 178 -321 319 -561 31 -52 63 -109 71 -125 8 -17 17 -32 20
-35 10 -10 41 -65 47 -82 3 -10 9 -18 14 -18 5 0 9 -5 9 -11 0 -6 9 -23 19
-37 l19 -27 1658 1 c1254 0 1659 4 1662 12 2 7 -1 12 -7 12 -6 0 -11 4 -11 9
0 6 -15 36 -34 68 -18 32 -45 78 -58 103 -14 25 -37 65 -52 90 -15 25 -29 53
-33 63 -3 9 -9 17 -14 17 -5 0 -9 4 -9 10 0 5 -54 104 -120 220 -66 115 -132
231 -147 257 -14 26 -37 65 -50 85 -12 21 -23 40 -23 43 0 3 -11 22 -23 43
-13 20 -35 57 -49 82 -14 25 -37 65 -52 90 -14 25 -34 61 -44 80 -9 19 -19 37
-22 40 -3 3 -38 61 -77 130 -39 69 -80 141 -91 160 -11 19 -53 94 -93 165 -40
72 -75 132 -79 135 -3 3 -12 19 -20 35 -8 17 -22 41 -31 55 -9 14 -35 61 -59
105 -24 44 -46 82 -49 85 -3 3 -14 21 -23 40 -25 50 -52 94 -60 98 -5 2 -8 8
-8 14 0 5 -24 51 -54 101 -29 51 -65 113 -80 140 -64 116 -81 144 -103 179
-12 21 -23 40 -23 43 0 3 -12 24 -27 48 -15 23 -27 45 -28 49 0 3 -3 10 -8 14
-10 11 -3318 11 -3324 0 -3 -4 -9 -2 -14 5 -6 10 -9 8 -9 -7z"/>
</g>
</svg>
